<?xml version="1.0" encoding="utf-8"?>
<!-- Generator: Adobe Illustrator 17.0.0, SVG Export Plug-In . SVG Version: 6.00 Build 0)  -->
<!DOCTYPE svg PUBLIC "-//W3C//DTD SVG 1.1//EN" "http://www.w3.org/Graphics/SVG/1.1/DTD/svg11.dtd">
<svg version="1.1" id="Layer_1" xmlns="http://www.w3.org/2000/svg" xmlns:xlink="http://www.w3.org/1999/xlink" x="0px" y="0px"
	 width="130px" height="40px" viewBox="0 0 130 40" enable-background="new 0 0 130 40" xml:space="preserve">
<g>
	
		<linearGradient id="SVGID_1_" gradientUnits="userSpaceOnUse" x1="5.3946" y1="-11.0977" x2="5.3946" y2="20.7935" gradientTransform="matrix(1 0 0 -1 59 23.5605)">
		<stop  offset="0" style="stop-color:#ECECEC"/>
		<stop  offset="1" style="stop-color:#FBFBFB"/>
	</linearGradient>
	<path fill="url(#SVGID_1_)" d="M117.324,36.855c-0.686,1.023-2.253,1.718-3.484,1.718H3.077c-1.231,0-1.958-0.727-1.958-1.958
		V3.051c0-1.231,0.727-2.517,1.958-2.517H113.84c1.231,0,2.771,0.994,3.424,2.037l9.935,15.961c0.652,1.044,0.625,2.699-0.06,3.721
		L117.324,36.855z"/>
	<path fill="#D7D7D7" d="M113.84,39.693H3.077C1.524,39.693,0,38.168,0,36.616V3.051c0-1.576,1.565-2.517,3.077-2.517H113.84
		c1.502,0,3.177,0.869,3.897,2.02l9.936,15.82c0.766,1.228,0.734,3.201-0.071,4.399l-9.813,14.672
		C117.064,38.527,115.347,39.693,113.84,39.693z M3.077,1.653c-0.963,0-1.958,0.523-1.958,1.399v33.565
		c0,0.915,1.043,1.958,1.958,1.958H113.84c0.983,0,2.394-0.818,3.02-1.75l9.813-14.672c0.564-0.838,0.588-2.325,0.052-3.182
		l-9.936-15.82c-0.516-0.825-1.838-1.496-2.949-1.496H3.077z"/>
</g>
</svg>
