<?xml version="1.0" encoding="utf-8"?>
<!-- Generator: Adobe Illustrator 17.0.0, SVG Export Plug-In . SVG Version: 6.00 Build 0)  -->
<!DOCTYPE svg PUBLIC "-//W3C//DTD SVG 1.1//EN" "http://www.w3.org/Graphics/SVG/1.1/DTD/svg11.dtd">
<svg version="1.1" id="Layer_1" xmlns="http://www.w3.org/2000/svg" xmlns:xlink="http://www.w3.org/1999/xlink" x="0px" y="0px"
	 width="130px" height="40px" viewBox="0 0 130 40" enable-background="new 0 0 130 40" xml:space="preserve">
<g>
	
		<linearGradient id="SVGID_1_" gradientUnits="userSpaceOnUse" x1="660.33" y1="-381.8145" x2="660.33" y2="-412.9556" gradientTransform="matrix(1 0 0 -1 -351 -216.4395)">
		<stop  offset="0" style="stop-color:#0096FC"/>
		<stop  offset="1" style="stop-color:#007DDD"/>
	</linearGradient>
	<path fill="url(#SVGID_1_)" d="M355.31,165.592c-0.583-0.933-1.96-1.592-3.06-1.592h-97c-1.1,0-1.523,0.659-0.94,1.592l8.88,14.151
		c0.583,0.933,0.559,2.417-0.054,3.331l-8.772,13.174c-0.613,0.914-0.214,1.752,0.886,1.752h97c1.1,0,2.501-0.852,3.114-1.765
		l8.772-13.135c0.613-0.914,0.637-2.398,0.054-3.331L355.31,165.592z"/>
	<path fill="none" stroke="#084DA0" stroke-miterlimit="10" d="M355.31,165.342c-0.583-0.933-1.96-1.842-3.06-1.842h-97
		c-1.1,0-1.523,0.909-0.94,1.842l8.88,14.276c0.583,0.933,0.559,2.48-0.054,3.393l-8.772,12.955
		c-0.613,0.914-0.214,1.534,0.886,1.534h97c1.1,0,2.501-0.602,3.114-1.515l8.772-13.01c0.613-0.914,0.637-2.461,0.054-3.393
		L355.31,165.342z"/>
</g>
<g>
	
		<linearGradient id="SVGID_2_" gradientUnits="userSpaceOnUse" x1="415.1851" y1="-219.7536" x2="415.1851" y2="-253.5939" gradientTransform="matrix(1 0 0 -1 -351 -216.4395)">
		<stop  offset="0" style="stop-color:#0096FC"/>
		<stop  offset="1" style="stop-color:#007DDD"/>
	</linearGradient>
	<path fill="url(#SVGID_2_)" d="M117.066,3.55c-0.671-1.014-2.254-1.73-3.519-1.73H1.988c-1.265,0-1.752,0.716-1.081,1.73
		L11.12,18.927c0.671,1.014,0.643,2.627-0.062,3.62L0.969,36.863c-0.705,0.993-0.246,1.904,1.019,1.904h111.559
		c1.265,0,2.876-0.926,3.581-1.918l10.089-14.273c0.705-0.993,0.733-2.606,0.062-3.62L117.066,3.55z"/>
	<path fill="#084DA0" d="M113.547,38.724H1.988c-1.136,0-1.573-0.472-1.732-0.753c-0.153-0.272-0.322-0.854,0.273-1.692l10.09-14.08
		c0.587-0.826,0.611-2.295,0.052-3.142L0.458,3.542c-0.44-0.666-0.504-1.369-0.176-1.928c0.312-0.532,0.934-0.837,1.707-0.837
		h111.558c1.539,0,3.258,1.161,3.968,2.237l10.214,15.474c0.78,1.179,0.748,3.077-0.071,4.23l-10.091,14.139
		C116.705,38.069,114.852,38.724,113.547,38.724z M1.988,1.777c-0.382,0-0.659,0.114-0.781,0.322
		c-0.134,0.229-0.079,0.57,0.149,0.914l10.214,15.514c0.779,1.179,0.747,3.076-0.072,4.229l-10.09,14.08
		C1.165,37.179,1.139,37.408,1.19,37.5c0.058,0.104,0.302,0.224,0.798,0.224h111.558c1.174,0,2.584-0.64,3.142-1.425l10.091-14.139
		c0.587-0.827,0.611-2.296,0.052-3.143L116.617,3.543c-0.622-0.941-2.057-1.766-3.071-1.766H1.988z"/>
</g>
</svg>
