<?xml version="1.0" encoding="utf-8"?>
<!-- Generator: Adobe Illustrator 17.0.0, SVG Export Plug-In . SVG Version: 6.00 Build 0)  -->
<!DOCTYPE svg PUBLIC "-//W3C//DTD SVG 1.1//EN" "http://www.w3.org/Graphics/SVG/1.1/DTD/svg11.dtd">
<svg version="1.1" id="Layer_1" xmlns="http://www.w3.org/2000/svg" xmlns:xlink="http://www.w3.org/1999/xlink" x="0px" y="0px"
	 width="130px" height="40px" viewBox="0 0 130 40" enable-background="new 0 0 130 40" xml:space="preserve">
<g>
	
		<linearGradient id="SVGID_1_" gradientUnits="userSpaceOnUse" x1="660.33" y1="-381.8145" x2="660.33" y2="-412.9556" gradientTransform="matrix(1 0 0 -1 -351 -216.4395)">
		<stop  offset="0" style="stop-color:#0096FC"/>
		<stop  offset="1" style="stop-color:#007DDD"/>
	</linearGradient>
	<path fill="url(#SVGID_1_)" d="M355.31,165.592c-0.583-0.933-1.96-1.592-3.06-1.592h-97c-1.1,0-1.523,0.659-0.94,1.592l8.88,14.151
		c0.583,0.933,0.559,2.417-0.054,3.331l-8.772,13.174c-0.613,0.914-0.214,1.752,0.886,1.752h97c1.1,0,2.501-0.852,3.114-1.765
		l8.772-13.135c0.613-0.914,0.637-2.398,0.054-3.331L355.31,165.592z"/>
	<path fill="none" stroke="#084DA0" stroke-miterlimit="10" d="M355.31,165.342c-0.583-0.933-1.96-1.842-3.06-1.842h-97
		c-1.1,0-1.523,0.909-0.94,1.842l8.88,14.276c0.583,0.933,0.559,2.48-0.054,3.393l-8.772,12.955
		c-0.613,0.914-0.214,1.534,0.886,1.534h97c1.1,0,2.501-0.602,3.114-1.515l8.772-13.01c0.613-0.914,0.637-2.461,0.054-3.393
		L355.31,165.342z"/>
</g>
<g>
	
		<linearGradient id="SVGID_2_" gradientUnits="userSpaceOnUse" x1="415.2927" y1="-250.8709" x2="415.2927" y2="-219.3198" gradientTransform="matrix(1 0 0 -1 -351 -216.4395)">
		<stop  offset="0" style="stop-color:#00A6DD"/>
		<stop  offset="1" style="stop-color:#00BCFC"/>
	</linearGradient>
	<path fill="url(#SVGID_2_)" d="M117.138,36.628c-0.685,1.012-2.25,1.677-3.478,1.677H3.072c-1.229,0-1.955-0.673-1.955-1.891V3.208
		c0-1.218,0.726-2.537,1.955-2.537h110.588c1.229,0,2.767,1.006,3.418,2.039l9.919,15.802c0.651,1.033,0.624,2.664-0.06,3.676
		L117.138,36.628z"/>
	<path fill="#3488B7" d="M113.659,39.411H3.072C1.522,39.411,0,37.927,0,36.415V3.208c0-1.567,1.594-2.537,3.072-2.537h110.588
		c1.491,0,3.165,0.869,3.891,2.022l9.92,15.663c0.764,1.212,0.732,3.161-0.071,4.347l-9.797,14.509
		C116.782,38.426,115.012,39.411,113.659,39.411z M3.072,1.778c-0.94,0-1.955,0.547-1.955,1.43v33.207
		c0,0.9,1.023,1.889,1.955,1.889h110.588c0.991,0,2.399-0.798,3.015-1.708l9.797-14.509c0.562-0.829,0.586-2.298,0.052-3.143
		l-9.92-15.663c-0.523-0.829-1.844-1.503-2.944-1.503H3.072z"/>
</g>
</svg>
