<?xml version="1.0" encoding="utf-8"?>
<!-- Generator: Adobe Illustrator 17.0.0, SVG Export Plug-In . SVG Version: 6.00 Build 0)  -->
<!DOCTYPE svg PUBLIC "-//W3C//DTD SVG 1.1//EN" "http://www.w3.org/Graphics/SVG/1.1/DTD/svg11.dtd">
<svg version="1.1" id="Layer_1" xmlns="http://www.w3.org/2000/svg" xmlns:xlink="http://www.w3.org/1999/xlink" x="0px" y="0px"
	 width="130px" height="40px" viewBox="0 0 130 40" enable-background="new 0 0 130 40" xml:space="preserve">
<g>
	
		<linearGradient id="SVGID_1_" gradientUnits="userSpaceOnUse" x1="414.8312" y1="-250.8403" x2="414.8312" y2="-219.3175" gradientTransform="matrix(1 0 0 -1 -351 -216.4395)">
		<stop  offset="0" style="stop-color:#007DDD"/>
		<stop  offset="1" style="stop-color:#0096FC"/>
	</linearGradient>
	<path fill="url(#SVGID_1_)" d="M117.271,36.596c-0.689,1.011-2.263,1.675-3.499,1.675H2.528C1.292,38.271,0,37.599,0,36.383V3.206
		c0-1.216,1.292-2.535,2.528-2.535h111.243c1.236,0,2.783,1.005,3.438,2.037l9.978,15.788c0.655,1.032,0.628,2.662-0.061,3.673
		L117.271,36.596z"/>
	<path fill="#084DA0" d="M113.772,39.377H2.528C0.946,39.377,0,37.855,0,36.383V3.206c0-1.54,0.993-2.535,2.528-2.535h111.243
		c1.5,0,3.182,0.868,3.914,2.02l9.979,15.649c0.768,1.211,0.736,3.158-0.071,4.343l-9.855,14.498
		C116.912,38.392,115.132,39.377,113.772,39.377z M2.528,1.777c-0.906,0-1.405,0.508-1.405,1.429v33.177
		c0,0.929,0.526,1.889,1.405,1.889h111.243c0.996,0,2.413-0.797,3.033-1.706l9.855-14.497c0.565-0.828,0.589-2.295,0.053-3.141
		l-9.979-15.649c-0.526-0.828-1.854-1.501-2.962-1.501H2.528z"/>
</g>
</svg>
