<?xml version="1.0" encoding="utf-8"?>
<!-- Generator: Adobe Illustrator 17.0.0, SVG Export Plug-In . SVG Version: 6.00 Build 0)  -->
<!DOCTYPE svg PUBLIC "-//W3C//DTD SVG 1.1//EN" "http://www.w3.org/Graphics/SVG/1.1/DTD/svg11.dtd">
<svg version="1.1" id="Layer_1" xmlns="http://www.w3.org/2000/svg" xmlns:xlink="http://www.w3.org/1999/xlink" x="0px" y="0px"
	 width="130px" height="40px" viewBox="0 0 130 40" enable-background="new 0 0 130 40" xml:space="preserve">
<g>
	
		<linearGradient id="SVGID_1_" gradientUnits="userSpaceOnUse" x1="415.1289" y1="-219.8195" x2="415.1289" y2="-253.6821" gradientTransform="matrix(1 0 0 -1 -351 -216.4395)">
		<stop  offset="0" style="stop-color:#00BCFC"/>
		<stop  offset="1" style="stop-color:#00A6DD"/>
	</linearGradient>
	<path fill="url(#SVGID_1_)" d="M116.988,3.593c-0.67-1.015-2.253-1.708-3.518-1.708H1.958c-1.265,0-1.751,0.694-1.081,1.708
		L11.086,18.97c0.67,1.015,0.643,2.623-0.062,3.617L0.94,36.931c-0.705,0.994-0.246,1.926,1.019,1.926H113.47
		c1.265,0,2.875-0.949,3.58-1.942l10.084-14.294c0.705-0.994,0.732-2.602,0.062-3.617L116.988,3.593z"/>
	<path fill="#3488B7" d="M113.47,38.856H1.958c-1.155,0-1.604-0.491-1.769-0.783c-0.16-0.285-0.337-0.89,0.274-1.751l10.085-14.11
		c0.577-0.812,0.601-2.257,0.051-3.091L0.39,3.608c-0.447-0.676-0.513-1.389-0.181-1.956c0.319-0.544,0.957-0.855,1.75-0.855H113.47
		c1.562,0,3.294,1.16,4.005,2.235l10.209,15.48c0.787,1.19,0.754,3.109-0.073,4.275l-10.084,14.158
		C116.754,38.034,115.009,38.856,113.47,38.856z M1.958,1.885c-0.363,0-0.634,0.108-0.744,0.295
		c-0.122,0.207-0.065,0.526,0.15,0.853l10.209,15.514c0.788,1.191,0.755,3.11-0.072,4.275L1.416,36.93
		c-0.218,0.308-0.264,0.539-0.213,0.632c0.058,0.103,0.314,0.207,0.755,0.207H113.47c1.151,0,2.543-0.641,3.103-1.429l10.084-14.158
		c0.578-0.814,0.603-2.26,0.053-3.092L116.5,3.609c-0.607-0.918-2.023-1.724-3.03-1.724H1.958z"/>
</g>
</svg>
