<?xml version="1.0" encoding="utf-8"?>
<!-- Generator: Adobe Illustrator 17.0.0, SVG Export Plug-In . SVG Version: 6.00 Build 0)  -->
<!DOCTYPE svg PUBLIC "-//W3C//DTD SVG 1.1//EN" "http://www.w3.org/Graphics/SVG/1.1/DTD/svg11.dtd">
<svg version="1.1" id="Layer_1" xmlns="http://www.w3.org/2000/svg" xmlns:xlink="http://www.w3.org/1999/xlink" x="0px" y="0px"
	 width="130px" height="40px" viewBox="0 0 130 40" enable-background="new 0 0 130 40" xml:space="preserve">
<g>
	
		<linearGradient id="SVGID_1_" gradientUnits="userSpaceOnUse" x1="660.33" y1="-381.8145" x2="660.33" y2="-412.9556" gradientTransform="matrix(1 0 0 -1 -351 -216.4395)">
		<stop  offset="0" style="stop-color:#0096FC"/>
		<stop  offset="1" style="stop-color:#007DDD"/>
	</linearGradient>
	<path fill="url(#SVGID_1_)" d="M355.31,165.592c-0.583-0.933-1.96-1.592-3.06-1.592h-97c-1.1,0-1.523,0.659-0.94,1.592l8.88,14.151
		c0.583,0.933,0.559,2.417-0.054,3.331l-8.772,13.174c-0.613,0.914-0.214,1.752,0.886,1.752h97c1.1,0,2.501-0.852,3.114-1.765
		l8.772-13.135c0.613-0.914,0.637-2.398,0.054-3.331L355.31,165.592z"/>
	<path fill="none" stroke="#084DA0" stroke-miterlimit="10" d="M355.31,165.342c-0.583-0.933-1.96-1.842-3.06-1.842h-97
		c-1.1,0-1.523,0.909-0.94,1.842l8.88,14.276c0.583,0.933,0.559,2.48-0.054,3.393l-8.772,12.955
		c-0.613,0.914-0.214,1.534,0.886,1.534h97c1.1,0,2.501-0.602,3.114-1.515l8.772-13.01c0.613-0.914,0.637-2.461,0.054-3.393
		L355.31,165.342z"/>
</g>
<g>
	
		<linearGradient id="SVGID_2_" gradientUnits="userSpaceOnUse" x1="415.2074" y1="-219.7827" x2="415.2074" y2="-253.4328" gradientTransform="matrix(1 0 0 -1 -351 -216.4395)">
		<stop  offset="0" style="stop-color:#CCCCCC"/>
		<stop  offset="1" style="stop-color:#999999"/>
	</linearGradient>
	<path fill="url(#SVGID_2_)" d="M117.043,3.555c-0.67-1.008-2.252-1.698-3.516-1.698H2.064c-1.264,0-1.75,0.689-1.08,1.698
		l10.204,15.28c0.67,1.008,0.642,2.606-0.062,3.594L1.046,36.684c-0.704,0.988-0.246,1.914,1.018,1.914h111.463
		c1.264,0,2.874-0.943,3.578-1.93l10.08-14.204c0.704-0.988,0.732-2.586,0.062-3.594L117.043,3.555z"/>
	<path fill="#808080" d="M113.527,38.596H2.063c-1.155,0-1.604-0.488-1.768-0.778c-0.16-0.283-0.338-0.884,0.273-1.74l10.081-14.02
		c0.577-0.808,0.601-2.244,0.051-3.072L0.496,3.57C0.049,2.898-0.017,2.19,0.315,1.627c0.318-0.54,0.956-0.85,1.748-0.85h111.463
		c1.561,0,3.294,1.153,4.004,2.221l10.204,15.383c0.788,1.182,0.754,3.088-0.073,4.248l-10.079,14.07
		C116.809,37.781,115.067,38.596,113.527,38.596z M2.063,1.857c-0.362,0-0.633,0.107-0.743,0.293
		C1.199,2.357,1.255,2.674,1.47,2.998l10.205,15.417c0.787,1.183,0.754,3.089-0.073,4.247L1.521,36.682
		c-0.218,0.306-0.264,0.536-0.212,0.628c0.058,0.102,0.314,0.206,0.754,0.206h111.463c1.151,0,2.543-0.637,3.102-1.419
		l10.079-14.071c0.578-0.81,0.603-2.246,0.053-3.072L116.557,3.571c-0.607-0.912-2.023-1.713-3.03-1.713H2.063z"/>
</g>
</svg>
