<?xml version="1.0" encoding="utf-8"?>
<!-- Generator: Adobe Illustrator 17.0.0, SVG Export Plug-In . SVG Version: 6.00 Build 0)  -->
<!DOCTYPE svg PUBLIC "-//W3C//DTD SVG 1.1//EN" "http://www.w3.org/Graphics/SVG/1.1/DTD/svg11.dtd">
<svg version="1.1" id="Layer_1" xmlns="http://www.w3.org/2000/svg" xmlns:xlink="http://www.w3.org/1999/xlink" x="0px" y="0px"
	 width="130px" height="40px" viewBox="0 0 130 40" enable-background="new 0 0 130 40" xml:space="preserve">
<g>
	
		<linearGradient id="SVGID_1_" gradientUnits="userSpaceOnUse" x1="766.1063" y1="557.4556" x2="766.1063" y2="591.3259" gradientTransform="matrix(1 0 0 1 -702 -553.9395)">
		<stop  offset="0" style="stop-color:#FBFBFB"/>
		<stop  offset="1" style="stop-color:#ECECEC"/>
	</linearGradient>
	<path fill="url(#SVGID_1_)" d="M116.946,3.752c-0.67-1.015-2.252-1.732-3.517-1.732H1.958c-1.264,0-1.75,0.717-1.08,1.732
		l10.205,15.391c0.67,1.015,0.642,2.629-0.062,3.623L0.94,37.094C0.236,38.089,0.694,39,1.958,39h111.471
		c1.264,0,2.874-0.927,3.579-1.92l10.081-14.286c0.704-0.994,0.732-2.608,0.062-3.623L116.946,3.752z"/>
	<path fill="#D7D7D7" d="M113.429,39H1.958c-1.16,0-1.607-0.486-1.771-0.776c-0.158-0.281-0.333-0.881,0.276-1.739l10.082-14.093
		c0.577-0.814,0.602-2.262,0.051-3.097L0.39,3.767c-0.448-0.68-0.513-1.399-0.177-1.973c0.32-0.547,0.957-0.861,1.746-0.861H113.43
		c1.551,0,3.286,1.173,4.003,2.259l10.206,15.489c0.789,1.193,0.755,3.113-0.073,4.28l-10.08,14.152
		C116.615,38.338,114.746,39,113.429,39z M1.958,2.02c-0.364,0-0.627,0.107-0.74,0.301c-0.126,0.215-0.071,0.54,0.147,0.87
		L11.571,18.72c0.787,1.193,0.755,3.114-0.073,4.28L1.416,37.092c-0.217,0.305-0.264,0.531-0.214,0.619
		c0.054,0.097,0.314,0.201,0.756,0.201h111.471c1.16,0,2.551-0.631,3.102-1.406l10.08-14.152c0.579-0.816,0.604-2.263,0.053-3.098
		L116.458,3.767c-0.615-0.93-2.03-1.747-3.029-1.747H1.958z"/>
</g>
</svg>
